<svg width="390" height="167" viewBox="0 0 390 167" fill="none" xmlns="http://www.w3.org/2000/svg">
<g filter="url(#filter0_d)">
<path d="M194.855 144.243C212.785 144.243 225.936 137.171 234.115 123.222C239.943 113.138 242.954 99.655 242.954 83.1216C242.954 66.5882 239.981 53.105 234.115 43.0217C225.995 29.0723 212.746 22.0002 194.855 22.0002C192.785 21.9943 190.717 22.0981 188.658 22.3112C187.3 22.4417 185.982 22.8424 184.781 23.4896C183.58 24.1369 182.52 25.0178 181.665 26.0804C180.422 27.6046 179.638 29.45 179.403 31.4023C179.167 33.3545 179.49 35.3336 180.334 37.1095C181.179 38.8855 182.509 40.3856 184.172 41.4356C185.834 42.4855 187.76 43.0422 189.726 43.0412C190.069 43.0605 190.413 43.0605 190.756 43.0412C192.118 42.9058 193.486 42.841 194.855 42.8469C205.928 42.8469 213.096 46.7325 217.389 55.3586C221.682 63.9847 222.168 75.3307 222.168 83.1797C222.168 91.0287 221.682 102.472 217.389 111.001C213.096 119.53 205.928 123.513 194.855 123.513C183.782 123.513 176.614 119.627 172.321 111.001C168.028 102.375 167.542 91.0287 167.542 83.1797C167.542 66.7629 170.67 55.2809 176.866 49.0639C178.811 47.1084 179.9 44.4603 179.893 41.7022C179.885 38.944 178.783 36.3017 176.828 34.3566C174.872 32.4114 172.225 31.3229 169.467 31.3302C166.709 31.3374 164.067 32.44 162.122 34.3955C151.923 44.6536 146.756 61.0704 146.756 83.1797C146.756 99.7131 149.728 113.196 155.595 123.28C163.715 137.113 176.925 144.243 194.855 144.243Z" fill="#86D3FF"/>
<path d="M194.855 140.512C211.386 140.512 223.528 134.062 230.948 121.317C236.485 111.797 239.282 98.9358 239.282 83.0629C239.282 67.19 236.485 54.3284 230.948 44.8086C223.528 32.0637 211.386 25.6135 194.855 25.6135C192.908 25.6103 190.963 25.7076 189.027 25.905C187.319 26.0894 185.746 26.921 184.632 28.2291C183.517 29.5372 182.946 31.2226 183.036 32.9387C183.126 34.6547 183.869 36.2713 185.113 37.4564C186.357 38.6414 188.008 39.3049 189.726 39.3105H190.387C191.824 39.1745 193.32 39.0968 194.855 39.0968C207.307 39.0968 215.738 43.8567 220.652 53.6291C225.295 62.8575 225.839 74.8642 225.839 83.1018C225.839 91.3394 225.295 103.346 220.652 112.574C215.738 122.288 207.307 127.107 194.855 127.107C182.403 127.107 173.972 122.347 169.057 112.574C164.414 103.346 163.87 91.3394 163.87 83.1018C163.87 65.6164 167.367 53.3377 174.263 46.4018C174.887 45.7755 175.381 45.0324 175.718 44.215C176.054 43.3976 176.227 42.522 176.225 41.638C176.223 40.754 176.047 39.8789 175.707 39.0629C175.367 38.2469 174.87 37.5058 174.244 36.8819C173.617 36.2581 172.874 35.7638 172.057 35.4272C171.24 35.0906 170.364 34.9183 169.48 34.9202C168.596 34.922 167.722 35.0977 166.906 35.4376C166.09 35.7776 165.349 36.275 164.725 36.9014C155.226 46.4601 150.427 62.0027 150.427 83.1018C150.427 98.9746 153.225 111.836 158.761 121.356C166.182 134.062 178.323 140.512 194.855 140.512Z" fill="#51BDFA"/>
<path d="M194.855 138.686C159.635 138.686 152.253 108.436 152.253 83.0629C152.253 62.469 156.896 47.3539 166.026 38.1643C166.955 37.3133 168.175 36.8526 169.434 36.8782C170.693 36.9038 171.893 37.4134 172.786 38.3014C173.679 39.1894 174.196 40.3874 174.228 41.6463C174.261 42.9052 173.807 44.1282 172.962 45.0612C165.716 52.3468 162.044 65.1307 162.044 83.0629C162.044 102.744 165.444 128.894 194.855 128.894C224.266 128.894 227.665 102.744 227.665 83.0629C227.665 63.3821 224.266 37.2318 194.855 37.2318C193.262 37.2318 191.688 37.2318 190.212 37.4455C188.977 37.4788 187.776 37.0441 186.848 36.2286C185.92 35.4131 185.335 34.2769 185.21 33.048C185.085 31.8192 185.428 30.5884 186.172 29.6023C186.916 28.6163 188.005 27.9481 189.221 27.7314C191.028 27.5565 192.931 27.4594 194.855 27.4594C230.055 27.4594 237.456 57.7091 237.456 83.0824C237.456 108.456 230.055 138.686 194.855 138.686Z" fill="white"/>
</g>
<g filter="url(#filter1_d)">
<path d="M114.237 95.5522H102.775V32.5187C102.775 29.7289 101.667 27.0533 99.6941 25.0807C97.7215 23.1081 95.046 22 92.2563 22C89.4666 22 86.7911 23.1081 84.8184 25.0807C82.8458 27.0533 81.7376 29.7289 81.7376 32.5187V33.777C80.9651 32.7473 80.0044 31.8732 78.9063 31.2013C77.2514 30.1608 75.3364 29.6089 73.3816 29.6089C71.587 29.6022 69.8209 30.0582 68.2539 30.933C66.6869 31.8077 65.3719 33.0715 64.4358 34.6026L23.5799 100.526C22.5924 102.119 22.048 103.946 22.003 105.819C21.9581 107.692 22.4142 109.543 23.3243 111.18C24.2343 112.818 25.5652 114.183 27.1794 115.134C28.7936 116.085 30.6325 116.587 32.506 116.59H73.3619C74.9854 116.591 76.5872 116.216 78.0407 115.492C79.4942 114.769 80.7598 113.718 81.7376 112.422V134.481C81.7376 137.271 82.8458 139.946 84.8184 141.919C86.7911 143.892 89.4666 145 92.2563 145C95.046 145 97.7215 143.892 99.6941 141.919C101.667 139.946 102.775 137.271 102.775 134.481V116.511H114.237C117.027 116.511 119.703 115.403 121.675 113.43C123.648 111.457 124.756 108.782 124.756 105.992C124.756 103.203 123.648 100.527 121.675 98.5544C119.703 96.5817 117.027 95.4737 114.237 95.4737V95.5522ZM73.3619 95.5522H51.4004L81.7376 46.6156V99.7006C80.7546 98.4115 79.4875 97.3666 78.0348 96.6471C76.5821 95.9276 74.983 95.5529 73.3619 95.5522Z" fill="#86D3FF"/>
<path d="M114.237 99.2679H99.0591V32.42C99.0591 30.6158 98.3424 28.8856 97.0666 27.6098C95.7909 26.3341 94.0606 25.6173 92.2564 25.6173C90.4521 25.6173 88.7218 26.3341 87.4461 27.6098C86.1703 28.8856 85.4536 30.6158 85.4536 32.42V134.383C85.4536 136.187 86.1703 137.917 87.4461 139.193C88.7218 140.469 90.4521 141.186 92.2564 141.186C94.0606 141.186 95.7909 140.469 97.0666 139.193C98.3424 137.917 99.0591 136.187 99.0591 134.383V112.755H114.237C116.042 112.755 117.772 112.039 119.048 110.763C120.324 109.487 121.04 107.757 121.04 105.953C121.04 104.149 120.324 102.418 119.048 101.142C117.772 99.8666 116.042 99.15 114.237 99.15V99.2679Z" fill="#51BDFA"/>
<path d="M73.3619 99.2681H44.8139L79.1619 43.7647C79.6331 43.0043 79.9499 42.1587 80.0943 41.2758C80.2386 40.393 80.2077 39.4903 80.0032 38.6195C79.7987 37.7486 79.4247 36.9265 78.9025 36.2002C78.3804 35.4739 77.7203 34.8575 76.9599 34.3863C76.1995 33.9151 75.3537 33.5982 74.4709 33.4539C73.5881 33.3095 72.6855 33.3406 71.8146 33.5451C70.9438 33.7495 70.1217 34.1235 69.3954 34.6457C68.6691 35.1679 68.0527 35.8279 67.5815 36.5883L26.7256 102.532C26.0885 103.562 25.738 104.743 25.7103 105.954C25.6825 107.165 25.9785 108.361 26.5678 109.42C27.157 110.478 28.018 111.36 29.0619 111.974C30.1059 112.588 31.2948 112.912 32.506 112.913H73.3619C75.1661 112.913 76.8964 112.196 78.1721 110.92C79.4479 109.645 80.1647 107.914 80.1647 106.11C80.1647 104.306 79.4479 102.576 78.1721 101.3C76.8964 100.024 75.1661 99.3074 73.3619 99.3074V99.2681Z" fill="#51BDFA"/>
<path d="M114.238 101.117H97.2109V32.5189C97.0593 31.3223 96.4764 30.2222 95.5715 29.4247C94.6666 28.6273 93.5018 28.1873 92.2957 28.1873C91.0895 28.1873 89.9248 28.6273 89.0199 29.4247C88.115 30.2222 87.532 31.3223 87.3804 32.5189V134.482C87.532 135.678 88.115 136.778 89.0199 137.576C89.9248 138.373 91.0895 138.813 92.2957 138.813C93.5018 138.813 94.6666 138.373 95.5715 137.576C96.4764 136.778 97.0593 135.678 97.2109 134.482V111.026H114.238C115.434 110.874 116.534 110.291 117.332 109.386C118.129 108.481 118.569 107.317 118.569 106.11C118.569 104.904 118.129 103.739 117.332 102.835C116.534 101.93 115.434 101.347 114.238 101.195V101.117Z" fill="white"/>
<path d="M73.3617 101.116H41.4124L77.5692 42.7422C77.9499 42.1896 78.2144 41.5655 78.3467 40.9076C78.4789 40.2497 78.4761 39.5718 78.3385 38.9151C78.2009 38.2583 77.9313 37.6361 77.5461 37.0867C77.1608 36.5373 76.668 36.0719 76.0975 35.7187C75.5269 35.3654 74.8905 35.1317 74.227 35.0318C73.5634 34.9319 72.8865 34.9678 72.2372 35.1374C71.588 35.307 70.9799 35.6066 70.45 36.0182C69.92 36.4298 69.4792 36.9448 69.1543 37.5319L28.2984 103.475C27.8306 104.224 27.5722 105.084 27.5501 105.967C27.528 106.849 27.7431 107.722 28.1728 108.493C28.6025 109.264 29.2312 109.906 29.9934 110.351C30.7555 110.797 31.6231 111.029 32.5059 111.025H73.3617C74.0594 111.114 74.7679 111.053 75.4402 110.846C76.1124 110.639 76.7329 110.292 77.2605 109.827C77.7881 109.362 78.2107 108.79 78.5001 108.149C78.7896 107.508 78.9394 106.813 78.9394 106.11C78.9394 105.407 78.7896 104.712 78.5001 104.071C78.2107 103.43 77.7881 102.858 77.2605 102.393C76.7329 101.928 76.1124 101.581 75.4402 101.374C74.7679 101.167 74.0594 101.106 73.3617 101.195V101.116Z" fill="white"/>
</g>
<g filter="url(#filter2_d)">
<path d="M357.191 95.5522H345.729V32.5187C345.729 29.7289 344.62 27.0533 342.648 25.0807C340.675 23.1081 338 22 335.21 22C332.42 22 329.745 23.1081 327.772 25.0807C325.799 27.0533 324.691 29.7289 324.691 32.5187V33.777C323.919 32.7473 322.958 31.8732 321.86 31.2013C320.205 30.1608 318.29 29.6089 316.335 29.6089C314.541 29.6022 312.775 30.0582 311.208 30.933C309.641 31.8077 308.326 33.0715 307.389 34.6026L266.534 100.526C265.546 102.119 265.002 103.946 264.957 105.819C264.912 107.692 265.368 109.543 266.278 111.18C267.188 112.818 268.519 114.183 270.133 115.134C271.747 116.085 273.586 116.587 275.46 116.59H316.316C317.939 116.591 319.541 116.216 320.994 115.492C322.448 114.769 323.713 113.718 324.691 112.422V134.481C324.691 137.271 325.799 139.946 327.772 141.919C329.745 143.892 332.42 145 335.21 145C338 145 340.675 143.892 342.648 141.919C344.62 139.946 345.729 137.271 345.729 134.481V116.511H357.191C359.981 116.511 362.656 115.403 364.629 113.43C366.602 111.457 367.71 108.782 367.71 105.992C367.71 103.203 366.602 100.527 364.629 98.5544C362.656 96.5817 359.981 95.4737 357.191 95.4737V95.5522ZM316.316 95.5522H294.354L324.691 46.6156V99.7006C323.708 98.4115 322.441 97.3666 320.988 96.6471C319.536 95.9276 317.937 95.5529 316.316 95.5522Z" fill="#86D3FF"/>
<path d="M357.191 99.2679H342.013V32.42C342.013 30.6158 341.296 28.8856 340.02 27.6098C338.744 26.3341 337.014 25.6173 335.21 25.6173C333.406 25.6173 331.675 26.3341 330.4 27.6098C329.124 28.8856 328.407 30.6158 328.407 32.42V134.383C328.407 136.187 329.124 137.917 330.4 139.193C331.675 140.469 333.406 141.186 335.21 141.186C337.014 141.186 338.744 140.469 340.02 139.193C341.296 137.917 342.013 136.187 342.013 134.383V112.755H357.191C358.995 112.755 360.726 112.039 362.001 110.763C363.277 109.487 363.994 107.757 363.994 105.953C363.994 104.149 363.277 102.418 362.001 101.142C360.726 99.8666 358.995 99.15 357.191 99.15V99.2679Z" fill="#51BDFA"/>
<path d="M316.315 99.2681H287.768L322.116 43.7647C322.587 43.0043 322.904 42.1587 323.048 41.2758C323.192 40.393 323.161 39.4903 322.957 38.6195C322.752 37.7486 322.378 36.9265 321.856 36.2002C321.334 35.4739 320.674 34.8575 319.914 34.3863C319.153 33.9151 318.307 33.5982 317.425 33.4539C316.542 33.3095 315.639 33.3406 314.768 33.5451C313.897 33.7495 313.075 34.1235 312.349 34.6457C311.623 35.1679 311.006 35.8279 310.535 36.5883L269.679 102.532C269.042 103.562 268.692 104.743 268.664 105.954C268.636 107.165 268.932 108.361 269.521 109.42C270.111 110.478 270.972 111.36 272.016 111.974C273.059 112.588 274.248 112.912 275.46 112.913H316.315C318.12 112.913 319.85 112.196 321.126 110.92C322.402 109.645 323.118 107.914 323.118 106.11C323.118 104.306 322.402 102.576 321.126 101.3C319.85 100.024 318.12 99.3074 316.315 99.3074V99.2681Z" fill="#51BDFA"/>
<path d="M357.191 101.117H340.165V32.5189C340.013 31.3223 339.43 30.2222 338.525 29.4247C337.62 28.6273 336.455 28.1873 335.249 28.1873C334.043 28.1873 332.878 28.6273 331.974 29.4247C331.069 30.2222 330.486 31.3223 330.334 32.5189V134.482C330.486 135.678 331.069 136.778 331.974 137.576C332.878 138.373 334.043 138.813 335.249 138.813C336.455 138.813 337.62 138.373 338.525 137.576C339.43 136.778 340.013 135.678 340.165 134.482V111.026H357.191C358.388 110.874 359.488 110.291 360.285 109.386C361.083 108.481 361.523 107.317 361.523 106.11C361.523 104.904 361.083 103.739 360.285 102.835C359.488 101.93 358.388 101.347 357.191 101.195V101.117Z" fill="white"/>
<path d="M316.315 101.116H284.366L320.523 42.7422C320.904 42.1896 321.168 41.5655 321.3 40.9076C321.433 40.2497 321.43 39.5718 321.292 38.9151C321.154 38.2583 320.885 37.6361 320.5 37.0867C320.114 36.5373 319.622 36.0719 319.051 35.7187C318.481 35.3654 317.844 35.1317 317.181 35.0318C316.517 34.9319 315.84 34.9678 315.191 35.1374C314.542 35.307 313.934 35.6066 313.404 36.0182C312.874 36.4298 312.433 36.9448 312.108 37.5319L271.252 103.475C270.784 104.224 270.526 105.084 270.504 105.967C270.482 106.849 270.697 107.722 271.126 108.493C271.556 109.264 272.185 109.906 272.947 110.351C273.709 110.797 274.577 111.029 275.459 111.025H316.315C317.013 111.114 317.722 111.053 318.394 110.846C319.066 110.639 319.687 110.292 320.214 109.827C320.742 109.362 321.164 108.79 321.454 108.149C321.743 107.508 321.893 106.813 321.893 106.11C321.893 105.407 321.743 104.712 321.454 104.071C321.164 103.43 320.742 102.858 320.214 102.393C319.687 101.928 319.066 101.581 318.394 101.374C317.722 101.167 317.013 101.106 316.315 101.195V101.116Z" fill="white"/>
</g>
<defs>
<filter id="filter0_d" x="125.331" y="0.575096" width="139.047" height="165.093" filterUnits="userSpaceOnUse" color-interpolation-filters="sRGB">
<feFlood flood-opacity="0" result="BackgroundImageFix"/>
<feColorMatrix in="SourceAlpha" type="matrix" values="0 0 0 0 0 0 0 0 0 0 0 0 0 0 0 0 0 0 127 0"/>
<feOffset/>
<feGaussianBlur stdDeviation="10.7125"/>
<feColorMatrix type="matrix" values="0 0 0 0 0.366667 0 0 0 0 0.81 0 0 0 0 1 0 0 0 0.9 0"/>
<feBlend mode="normal" in2="BackgroundImageFix" result="effect1_dropShadow"/>
<feBlend mode="normal" in="SourceGraphic" in2="effect1_dropShadow" result="shape"/>
</filter>
<filter id="filter1_d" x="0.575096" y="0.575096" width="145.606" height="165.85" filterUnits="userSpaceOnUse" color-interpolation-filters="sRGB">
<feFlood flood-opacity="0" result="BackgroundImageFix"/>
<feColorMatrix in="SourceAlpha" type="matrix" values="0 0 0 0 0 0 0 0 0 0 0 0 0 0 0 0 0 0 127 0"/>
<feOffset/>
<feGaussianBlur stdDeviation="10.7125"/>
<feColorMatrix type="matrix" values="0 0 0 0 0.366667 0 0 0 0 0.81 0 0 0 0 1 0 0 0 0.9 0"/>
<feBlend mode="normal" in2="BackgroundImageFix" result="effect1_dropShadow"/>
<feBlend mode="normal" in="SourceGraphic" in2="effect1_dropShadow" result="shape"/>
</filter>
<filter id="filter2_d" x="243.529" y="0.575096" width="145.606" height="165.85" filterUnits="userSpaceOnUse" color-interpolation-filters="sRGB">
<feFlood flood-opacity="0" result="BackgroundImageFix"/>
<feColorMatrix in="SourceAlpha" type="matrix" values="0 0 0 0 0 0 0 0 0 0 0 0 0 0 0 0 0 0 127 0"/>
<feOffset/>
<feGaussianBlur stdDeviation="10.7125"/>
<feColorMatrix type="matrix" values="0 0 0 0 0.366667 0 0 0 0 0.81 0 0 0 0 1 0 0 0 0.9 0"/>
<feBlend mode="normal" in2="BackgroundImageFix" result="effect1_dropShadow"/>
<feBlend mode="normal" in="SourceGraphic" in2="effect1_dropShadow" result="shape"/>
</filter>
</defs>
</svg>
