<svg width="376" height="167" viewBox="0 0 376 167" fill="none" xmlns="http://www.w3.org/2000/svg">
<g filter="url(#filter0_d)">
<path d="M91.9424 58.9331C86.1728 56.2562 79.8866 54.8767 73.5265 54.8919C68.5888 54.8187 63.6728 55.5604 58.9765 57.0873C57.0507 57.7431 55.3612 58.953 54.12 60.565V42.7881H102.685C105.441 42.7881 108.085 41.6929 110.034 39.7437C111.983 37.7944 113.078 35.1507 113.078 32.3941C113.078 29.6374 111.983 26.9935 110.034 25.0442C108.085 23.0949 105.441 22 102.685 22H43.727C40.9722 22.0051 38.3318 23.1017 36.3838 25.0499C34.4359 26.9981 33.3393 29.6389 33.3341 32.3941V84.0342C33.3341 86.7909 34.4291 89.4348 36.3781 91.3841C38.3272 93.3333 40.9707 94.4285 43.727 94.4285C46.4834 94.4285 49.1269 93.3333 51.0759 91.3841C53.025 89.4348 54.12 86.7909 54.12 84.0342V73.2517C55.4469 74.9881 57.2882 76.261 59.3812 76.889C61.4742 77.517 63.7121 77.4678 65.7756 76.7486C68.2907 75.9737 70.915 75.6129 73.5459 75.6802C76.9001 75.6613 80.217 76.3844 83.2589 77.7978C85.6032 78.7887 87.6223 80.4178 89.0867 82.4995C92.5165 87.318 94.3323 93.0991 94.2735 99.0135C94.2735 107.115 92.1754 113.274 87.8435 117.781C83.5115 122.288 77.6643 124.309 69.5442 124.309C61.055 124.309 54.5473 122.483 50.1182 118.908C48.03 117.23 46.2967 115.153 45.0193 112.798C43.7419 110.443 42.946 107.857 42.678 105.192C42.3445 102.7 41.1197 100.414 39.2303 98.7569C37.3409 97.0995 34.9149 96.1828 32.4017 96.1768C31.9359 96.1478 31.4688 96.1478 31.003 96.1768C28.2791 96.549 25.8128 97.9835 24.1424 100.167C22.472 102.351 21.7329 105.107 22.0865 107.834C23.3038 118.434 28.6246 128.135 36.9086 134.859C45.0869 141.581 56.0431 145 69.4665 145C83.3561 145 94.5843 140.648 102.782 132.061C110.98 123.474 114.982 112.458 114.982 98.9163C115.048 88.8064 111.965 78.9265 106.162 70.6481C102.577 65.5214 97.6601 61.471 91.9424 58.9331Z" fill="#86D3FF"/>
<path d="M90.4077 62.2555C85.1164 59.8108 79.3552 58.551 73.5265 58.5641C69.0015 58.4746 64.4926 59.131 60.1809 60.507C58.6661 61.0156 57.3821 62.0474 56.5591 63.4172C55.736 64.7869 55.4279 66.4051 55.6898 67.9816C55.9517 69.558 56.7666 70.9895 57.9884 72.0195C59.2101 73.0494 60.7587 73.6102 62.3566 73.6016C63.0977 73.6052 63.8338 73.4804 64.5323 73.2325C67.4424 72.3281 70.4799 71.9016 73.5265 71.9697C77.4033 71.9543 81.2361 72.79 84.7547 74.4176C87.7419 75.6833 90.318 77.7551 92.1949 80.4014C96.0452 85.8241 98.0848 92.3245 98.0227 98.9749C98.0227 108.067 95.575 115.042 90.5825 120.346C85.5901 125.65 78.791 127.981 69.6219 127.981C60.4529 127.981 52.9738 125.883 47.9425 121.745C45.5016 119.776 43.473 117.346 41.973 114.592C40.4729 111.838 39.5309 108.816 39.2008 105.697C38.9809 104.088 38.1878 102.613 36.9673 101.542C35.7467 100.471 34.1807 99.877 32.5571 99.8686C32.2531 99.8493 31.9481 99.8493 31.6441 99.8686C30.7646 99.9764 29.9153 100.258 29.1452 100.696C28.3751 101.134 27.6995 101.721 27.1576 102.422C26.6156 103.123 26.218 103.924 25.9878 104.78C25.7576 105.636 25.6993 106.528 25.8163 107.407C26.9417 117.095 31.8245 125.955 39.4145 132.08C46.9129 138.259 57.0921 141.387 69.6413 141.387C82.5013 141.387 92.8166 137.501 100.315 129.574C107.813 121.648 111.485 111.526 111.485 98.9749C111.552 89.6095 108.7 80.4557 103.326 72.7857C100.064 68.1596 95.5961 64.5172 90.4077 62.2555Z" fill="#51BDFA"/>
<path d="M37.0059 32.3942V84.0344C37.0984 85.7573 37.848 87.3792 39.1002 88.5661C40.3523 89.7529 42.0118 90.4143 43.737 90.4143C45.4621 90.4143 47.1216 89.7529 48.3738 88.5661C49.626 87.3792 50.3755 85.7573 50.4681 84.0344V39.1163H102.763C104.545 39.1163 106.255 38.4081 107.516 37.1474C108.776 35.8868 109.484 34.1771 109.484 32.3942C109.484 30.6114 108.776 28.9015 107.516 27.6408C106.255 26.3802 104.545 25.6721 102.763 25.6721H43.7272C41.9462 25.6773 40.2396 26.387 38.9802 27.6465C37.7208 28.9061 37.011 30.613 37.0059 32.3942Z" fill="#51BDFA"/>
<path d="M69.6025 139.579C57.4806 139.579 47.7094 136.606 40.4635 130.7C33.2699 124.854 28.6532 116.422 27.6035 107.212C27.518 106.574 27.559 105.925 27.7241 105.303C27.8892 104.681 28.1752 104.098 28.5658 103.587C28.9563 103.075 29.4437 102.646 30.0002 102.322C30.5567 101.999 31.1714 101.789 31.8092 101.704C32.447 101.618 33.0953 101.659 33.7172 101.824C34.3392 101.989 34.9225 102.275 35.4339 102.666C35.9453 103.056 36.3747 103.544 36.6977 104.101C37.0207 104.657 37.231 105.272 37.3165 105.91C37.6687 109.259 38.6789 112.505 40.2891 115.462C41.8992 118.42 44.0776 121.03 46.6992 123.143C52.0608 127.572 59.7535 129.807 69.5442 129.807C79.3349 129.807 86.5419 127.106 91.8258 121.588C97.1097 116.071 99.771 108.61 99.771 99.0129C99.8498 91.9966 97.708 85.1349 93.6518 79.4096C91.5905 76.4923 88.7591 74.2055 85.4735 72.8042C81.7121 71.0612 77.6137 70.1656 73.4682 70.1812C70.2165 70.1056 66.9745 70.5652 63.8718 71.5413C62.6687 71.876 61.3833 71.7381 60.2785 71.1562C59.1736 70.5742 58.333 69.5921 57.9284 68.4106C57.5239 67.2291 57.5861 65.9376 58.1023 64.8005C58.6185 63.6634 59.5497 62.7665 60.7054 62.2935C64.8238 60.948 69.136 60.2916 73.4682 60.3506C79.0303 60.3369 84.5276 61.5438 89.5724 63.8865C94.4593 66.0189 98.6613 69.4615 101.714 73.8337C106.845 81.2065 109.56 89.9913 109.484 98.974C109.484 111.039 105.89 120.908 98.8192 128.311C91.7481 135.713 81.938 139.579 69.6025 139.579Z" fill="white"/>
<path d="M43.727 88.9694C43.085 88.9694 42.4494 88.8426 41.8566 88.5963C41.2638 88.35 40.7253 87.9892 40.2723 87.5343C39.8193 87.0794 39.4605 86.5395 39.2167 85.9456C38.9728 85.3517 38.8486 84.7154 38.8511 84.0734V32.4333C38.8486 31.7913 38.9728 31.155 39.2167 30.5611C39.4605 29.9672 39.8193 29.4273 40.2723 28.9724C40.7253 28.5175 41.2638 28.1567 41.8566 27.9104C42.4494 27.6641 43.085 27.5373 43.727 27.5373H102.763C103.945 27.6872 105.032 28.2632 105.82 29.1574C106.608 30.0516 107.042 31.2025 107.042 32.3944C107.042 33.5862 106.608 34.7372 105.82 35.6314C105.032 36.5256 103.945 37.1016 102.763 37.2514H48.6224V83.9956C48.6327 84.6451 48.5137 85.2902 48.2723 85.8932C48.0309 86.4962 47.6719 87.0451 47.2163 87.508C46.7607 87.9709 46.2175 88.3386 45.6185 88.5894C45.0194 88.8403 44.3765 88.9695 43.727 88.9694Z" fill="white"/>
</g>
<g filter="url(#filter1_d)">
<path d="M186.392 144.243C204.323 144.243 217.474 137.171 225.652 123.222C231.48 113.138 234.491 99.655 234.491 83.1216C234.491 66.5882 231.519 53.105 225.652 43.0217C217.532 29.0723 204.284 22.0002 186.392 22.0002C184.323 21.9943 182.254 22.0981 180.196 22.3112C178.838 22.4417 177.519 22.8424 176.318 23.4896C175.117 24.1369 174.058 25.0178 173.202 26.0804C171.96 27.6046 171.176 29.45 170.94 31.4023C170.705 33.3545 171.028 35.3336 171.872 37.1095C172.716 38.8855 174.047 40.3856 175.709 41.4356C177.372 42.4855 179.298 43.0422 181.264 43.0412C181.607 43.0605 181.951 43.0605 182.294 43.0412C183.656 42.9058 185.024 42.841 186.392 42.8469C197.465 42.8469 204.633 46.7325 208.927 55.3586C213.22 63.9847 213.705 75.3307 213.705 83.1797C213.705 91.0287 213.22 102.472 208.927 111.001C204.633 119.53 197.465 123.513 186.392 123.513C175.32 123.513 168.151 119.627 163.858 111.001C159.565 102.375 159.08 91.0287 159.08 83.1797C159.08 66.7629 162.207 55.2809 168.404 49.0639C170.349 47.1084 171.437 44.4603 171.43 41.7022C171.423 38.944 170.32 36.3017 168.365 34.3566C166.41 32.4114 163.762 31.3229 161.004 31.3302C158.247 31.3374 155.605 32.44 153.66 34.3955C143.461 44.6536 138.294 61.0704 138.294 83.1797C138.294 99.7131 141.266 113.196 147.133 123.28C155.253 137.113 168.462 144.243 186.392 144.243Z" fill="#86D3FF"/>
<path d="M186.392 140.512C202.924 140.512 215.065 134.062 222.486 121.317C228.022 111.797 230.82 98.9358 230.82 83.0629C230.82 67.1901 228.022 54.3285 222.486 44.8086C215.065 32.0637 202.924 25.6135 186.392 25.6135C184.446 25.6103 182.501 25.7076 180.565 25.905C178.856 26.0894 177.283 26.9211 176.169 28.2292C175.055 29.5373 174.484 31.2227 174.574 32.9387C174.663 34.6548 175.406 36.2714 176.651 37.4564C177.895 38.6414 179.546 39.3049 181.264 39.3105H181.924C183.362 39.1745 184.858 39.0968 186.392 39.0968C198.844 39.0968 207.275 43.8567 212.19 53.6291C216.833 62.8575 217.377 74.8643 217.377 83.1018C217.377 91.3394 216.833 103.346 212.19 112.574C207.275 122.288 198.844 127.107 186.392 127.107C173.94 127.107 165.509 122.347 160.595 112.574C155.952 103.346 155.408 91.3394 155.408 83.1018C155.408 65.6164 158.905 53.3378 165.801 46.4019C166.425 45.7755 166.919 45.0324 167.255 44.215C167.592 43.3976 167.764 42.522 167.762 41.638C167.761 40.754 167.585 39.8789 167.245 39.0629C166.905 38.2469 166.408 37.5058 165.781 36.882C165.155 36.2582 164.412 35.7639 163.595 35.4272C162.777 35.0906 161.902 34.9184 161.018 34.9202C160.134 34.922 159.259 35.0977 158.443 35.4377C157.627 35.7776 156.886 36.2751 156.263 36.9014C146.763 46.4601 141.965 62.0028 141.965 83.1018C141.965 98.9747 144.762 111.836 150.299 121.356C157.72 134.062 169.861 140.512 186.392 140.512Z" fill="#51BDFA"/>
<path d="M186.392 138.686C151.173 138.686 143.791 108.436 143.791 83.063C143.791 62.469 148.434 47.3539 157.564 38.1644C158.492 37.3134 159.713 36.8527 160.971 36.8782C162.23 36.9038 163.431 37.4135 164.324 38.3014C165.217 39.1894 165.733 40.3875 165.766 41.6464C165.798 42.9053 165.345 44.1282 164.499 45.0612C157.253 52.3468 153.582 65.1307 153.582 83.063C153.582 102.744 156.981 128.894 186.392 128.894C215.803 128.894 219.203 102.744 219.203 83.063C219.203 63.3822 215.803 37.2318 186.392 37.2318C184.799 37.2318 183.226 37.2318 181.749 37.4455C180.515 37.4788 179.313 37.0442 178.386 36.2286C177.458 35.4131 176.873 34.2769 176.747 33.0481C176.622 31.8192 176.966 30.5884 177.71 29.6024C178.454 28.6163 179.543 27.9481 180.759 27.7314C182.565 27.5566 184.469 27.4594 186.392 27.4594C221.592 27.4594 228.993 57.7091 228.993 83.0824C228.993 108.456 221.592 138.686 186.392 138.686Z" fill="white"/>
</g>
<g filter="url(#filter2_d)">
<path d="M305.901 144.243C323.831 144.243 336.983 137.171 345.161 123.222C350.989 113.138 354 99.655 354 83.1216C354 66.5882 351.028 53.105 345.161 43.0217C337.041 29.0723 323.793 22.0002 305.901 22.0002C303.832 21.9943 301.763 22.0981 299.704 22.3112C298.346 22.4417 297.028 22.8424 295.827 23.4896C294.626 24.1369 293.567 25.0178 292.711 26.0804C291.469 27.6046 290.684 29.45 290.449 31.4023C290.213 33.3545 290.537 35.3336 291.381 37.1095C292.225 38.8855 293.555 40.3856 295.218 41.4356C296.88 42.4855 298.807 43.0422 300.773 43.0412C301.116 43.0605 301.459 43.0605 301.802 43.0412C303.164 42.9058 304.533 42.841 305.901 42.8469C316.974 42.8469 324.142 46.7325 328.435 55.3586C332.729 63.9847 333.214 75.3307 333.214 83.1797C333.214 91.0287 332.729 102.472 328.435 111.001C324.142 119.53 316.974 123.513 305.901 123.513C294.828 123.513 287.66 119.627 283.367 111.001C279.074 102.375 278.588 91.0287 278.588 83.1797C278.588 66.7629 281.716 55.2809 287.913 49.0639C289.858 47.1084 290.946 44.4603 290.939 41.7022C290.932 38.944 289.829 36.3017 287.874 34.3566C285.919 32.4114 283.271 31.3229 280.513 31.3302C277.755 31.3374 275.113 32.44 273.168 34.3955C262.97 44.6536 257.802 61.0704 257.802 83.1797C257.802 99.7131 260.775 113.196 266.641 123.28C274.761 137.113 287.971 144.243 305.901 144.243Z" fill="#86D3FF"/>
<path d="M305.901 140.512C322.433 140.512 334.574 134.062 341.995 121.317C347.531 111.797 350.328 98.9358 350.328 83.0629C350.328 67.1901 347.531 54.3285 341.995 44.8086C334.574 32.0637 322.433 25.6135 305.901 25.6135C303.955 25.6103 302.01 25.7076 300.073 25.905C298.365 26.0894 296.792 26.9211 295.678 28.2292C294.564 29.5373 293.993 31.2227 294.082 32.9387C294.172 34.6548 294.915 36.2714 296.159 37.4564C297.404 38.6414 299.054 39.3049 300.773 39.3105H301.433C302.871 39.1745 304.366 39.0968 305.901 39.0968C318.353 39.0968 326.784 43.8567 331.699 53.6291C336.342 62.8575 336.886 74.8643 336.886 83.1018C336.886 91.3394 336.342 103.346 331.699 112.574C326.784 122.288 318.353 127.107 305.901 127.107C293.449 127.107 285.018 122.347 280.103 112.574C275.461 103.346 274.917 91.3394 274.917 83.1018C274.917 65.6164 278.413 53.3378 285.31 46.4019C285.933 45.7755 286.428 45.0324 286.764 44.215C287.101 43.3976 287.273 42.522 287.271 41.638C287.269 40.754 287.094 39.8789 286.754 39.0629C286.414 38.2469 285.916 37.5058 285.29 36.882C284.664 36.2582 283.921 35.7639 283.104 35.4272C282.286 35.0906 281.411 34.9184 280.527 34.9202C279.643 34.922 278.768 35.0977 277.952 35.4377C277.136 35.7776 276.395 36.2751 275.771 36.9014C266.272 46.4601 261.474 62.0028 261.474 83.1018C261.474 98.9747 264.271 111.836 269.808 121.356C277.228 134.062 289.37 140.512 305.901 140.512Z" fill="#51BDFA"/>
<path d="M305.901 138.686C270.682 138.686 263.3 108.436 263.3 83.063C263.3 62.469 267.943 47.3539 277.073 38.1644C278.001 37.3134 279.221 36.8527 280.48 36.8782C281.739 36.9038 282.94 37.4135 283.833 38.3014C284.726 39.1894 285.242 40.3875 285.275 41.6464C285.307 42.9053 284.854 44.1282 284.008 45.0612C276.762 52.3468 273.09 65.1307 273.09 83.063C273.09 102.744 276.49 128.894 305.901 128.894C335.312 128.894 338.711 102.744 338.711 83.063C338.711 63.3822 335.312 37.2318 305.901 37.2318C304.308 37.2318 302.735 37.2318 301.258 37.4455C300.024 37.4788 298.822 37.0442 297.894 36.2286C296.967 35.4131 296.382 34.2769 296.256 33.0481C296.131 31.8192 296.475 30.5884 297.219 29.6024C297.962 28.6163 299.052 27.9481 300.267 27.7314C302.074 27.5566 303.978 27.4594 305.901 27.4594C341.101 27.4594 348.502 57.7091 348.502 83.0824C348.502 108.456 341.101 138.686 305.901 138.686Z" fill="white"/>
</g>
<defs>
<filter id="filter0_d" x="0.575096" y="0.575096" width="135.832" height="165.85" filterUnits="userSpaceOnUse" color-interpolation-filters="sRGB">
<feFlood flood-opacity="0" result="BackgroundImageFix"/>
<feColorMatrix in="SourceAlpha" type="matrix" values="0 0 0 0 0 0 0 0 0 0 0 0 0 0 0 0 0 0 127 0"/>
<feOffset/>
<feGaussianBlur stdDeviation="10.7125"/>
<feColorMatrix type="matrix" values="0 0 0 0 0.366667 0 0 0 0 0.81 0 0 0 0 1 0 0 0 0.9 0"/>
<feBlend mode="normal" in2="BackgroundImageFix" result="effect1_dropShadow"/>
<feBlend mode="normal" in="SourceGraphic" in2="effect1_dropShadow" result="shape"/>
</filter>
<filter id="filter1_d" x="116.869" y="0.575096" width="139.047" height="165.093" filterUnits="userSpaceOnUse" color-interpolation-filters="sRGB">
<feFlood flood-opacity="0" result="BackgroundImageFix"/>
<feColorMatrix in="SourceAlpha" type="matrix" values="0 0 0 0 0 0 0 0 0 0 0 0 0 0 0 0 0 0 127 0"/>
<feOffset/>
<feGaussianBlur stdDeviation="10.7125"/>
<feColorMatrix type="matrix" values="0 0 0 0 0.366667 0 0 0 0 0.81 0 0 0 0 1 0 0 0 0.9 0"/>
<feBlend mode="normal" in2="BackgroundImageFix" result="effect1_dropShadow"/>
<feBlend mode="normal" in="SourceGraphic" in2="effect1_dropShadow" result="shape"/>
</filter>
<filter id="filter2_d" x="236.378" y="0.575096" width="139.047" height="165.093" filterUnits="userSpaceOnUse" color-interpolation-filters="sRGB">
<feFlood flood-opacity="0" result="BackgroundImageFix"/>
<feColorMatrix in="SourceAlpha" type="matrix" values="0 0 0 0 0 0 0 0 0 0 0 0 0 0 0 0 0 0 127 0"/>
<feOffset/>
<feGaussianBlur stdDeviation="10.7125"/>
<feColorMatrix type="matrix" values="0 0 0 0 0.366667 0 0 0 0 0.81 0 0 0 0 1 0 0 0 0.9 0"/>
<feBlend mode="normal" in2="BackgroundImageFix" result="effect1_dropShadow"/>
<feBlend mode="normal" in="SourceGraphic" in2="effect1_dropShadow" result="shape"/>
</filter>
</defs>
</svg>
