<svg width="48" height="48" viewBox="0 0 48 48" fill="none" xmlns="http://www.w3.org/2000/svg">
<path fill-rule="evenodd" clip-rule="evenodd" d="M13.9417 7.7778L17.5 3.88892H29.1667L32.725 7.7778H38.8889C41.0278 7.7778 42.7778 9.5278 42.7778 11.6667V35C42.7778 37.1389 41.0278 38.8889 38.8889 38.8889H7.77781C5.63892 38.8889 3.88892 37.1389 3.88892 35V11.6667C3.88892 9.5278 5.63892 7.7778 7.77781 7.7778H13.9417ZM13.6111 23.3334C13.6111 28.7 17.9667 33.0556 23.3334 33.0556C28.7 33.0556 33.0556 28.7 33.0556 23.3334C33.0556 17.9667 28.7 13.6111 23.3334 13.6111C17.9667 13.6111 13.6111 17.9667 13.6111 23.3334ZM29.5555 23.3333C29.5555 26.7697 26.7697 29.5555 23.3333 29.5555C19.8969 29.5555 17.1111 26.7697 17.1111 23.3333C17.1111 19.8969 19.8969 17.1111 23.3333 17.1111C26.7697 17.1111 29.5555 19.8969 29.5555 23.3333Z" fill="#1B1D37"/>
</svg>
