<svg width="100" height="102" viewBox="0 0 100 102" fill="none" xmlns="http://www.w3.org/2000/svg">
<g filter="url(#filter0_d)">
<path fill-rule="evenodd" clip-rule="evenodd" d="M33.7224 84.3885C41.1311 96.5118 58.7385 96.5118 66.1471 84.3885L89.0521 46.9076C96.7892 34.2469 87.6774 18.0001 72.8398 18.0001H27.0298C12.1921 18.0001 3.08036 34.2469 10.8175 46.9076L33.7224 84.3885ZM64.4406 83.3456C57.8118 94.1927 42.0578 94.1927 35.429 83.3456L12.524 45.8647C5.60135 34.5367 13.754 20.0001 27.0298 20.0001H72.8398C86.1156 20.0001 94.2682 34.5367 87.3456 45.8647L64.4406 83.3456ZM40.3541 50.553C44.6405 59.1491 55.229 59.1491 59.5155 50.553L69.8965 28.5143C70.084 28.1161 69.535 27.7941 69.2936 28.1608L57.8731 47.5104C53.7731 54.3513 46.0965 54.3513 41.9965 47.5104L30.576 28.1608C30.3346 27.7941 29.7855 28.1161 29.9731 28.5143L40.3541 50.553ZM43.8838 41.2417C46.5911 46.8175 53.2785 46.8175 55.9858 41.2417L61.7845 28.5983C61.9682 28.1977 61.4149 27.8817 61.1777 28.2518L54.9485 38.9708C52.359 43.4081 47.5106 43.4081 44.9211 38.9708L38.6919 28.2518C38.4547 27.8817 37.9014 28.1977 38.0851 28.5983L43.8838 41.2417ZM9.11407 23.1092C9.12766 23.0819 9.14126 23.0545 9.15486 23.0271C9.12758 23.0809 9.11407 23.1092 9.11407 23.1092ZM90.7171 23.0318C90.3757 22.3425 90.0412 21.6267 89.7007 20.898C86.8907 14.8844 83.6738 8 72.8398 8H27.0298C16.5202 8 12.7537 15.6871 9.70409 21.911C9.51882 22.2891 9.33619 22.6619 9.15486 23.0271C9.66792 22.0159 15.0518 12 27.0298 12H72.8398C84.8365 12 90.2185 22.0472 90.7171 23.0318ZM90.7171 23.0318C90.7299 23.0577 90.7427 23.0835 90.7555 23.1092C90.7555 23.1092 90.7428 23.0825 90.7171 23.0318Z" fill="#4EBFFF"/>
</g>
<defs>
<filter id="filter0_d" x="0" y="0" width="99.8696" height="101.481" filterUnits="userSpaceOnUse" color-interpolation-filters="sRGB">
<feFlood flood-opacity="0" result="BackgroundImageFix"/>
<feColorMatrix in="SourceAlpha" type="matrix" values="0 0 0 0 0 0 0 0 0 0 0 0 0 0 0 0 0 0 127 0"/>
<feOffset/>
<feGaussianBlur stdDeviation="4"/>
<feColorMatrix type="matrix" values="0 0 0 0 0.291667 0 0 0 0 0.746528 0 0 0 0 1 0 0 0 1 0"/>
<feBlend mode="normal" in2="BackgroundImageFix" result="effect1_dropShadow"/>
<feBlend mode="normal" in="SourceGraphic" in2="effect1_dropShadow" result="shape"/>
</filter>
</defs>
</svg>
