<svg width="94" height="109" viewBox="0 0 94 109" fill="none" xmlns="http://www.w3.org/2000/svg">
<g filter="url(#filter0_d)">
<path fill-rule="evenodd" clip-rule="evenodd" d="M83.8782 21.1828C81.0985 17.7881 71.2227 5.72736 57.144 14.245L18.9445 36.9486C9.4181 43.8895 9 49.8869 9 49.8869C9 44.7222 10.685 38.5535 16.3458 35.1288L55.0968 10.9284C66.2767 4.16452 80.7799 9.74081 83.9494 21.2697L83.8782 21.1828ZM19.602 43.2312C7.38218 50.6242 7.38221 68.3509 19.602 75.7439L55.1651 97.2598C67.8278 104.921 84.0003 95.8032 84.0003 81.0034L84.0003 37.9717C84.0003 23.1719 67.8277 14.0544 55.1651 21.7154L19.602 43.2312ZM20.6373 74.0327C9.70378 67.4179 9.70376 51.5572 20.6372 44.9424L56.2004 23.4265C67.5301 16.572 82.0003 24.7298 82.0003 37.9717L82.0003 81.0034C82.0003 94.2453 67.5301 102.403 56.2004 95.5486L20.6373 74.0327ZM52.0306 50.1779C43.5934 54.3431 43.5934 64.632 52.0306 68.7972L73.6619 78.8844C74.0528 79.0667 74.3687 78.5331 74.0088 78.2986L55.0169 67.2012C48.3025 63.2172 48.3025 55.7578 55.0169 51.7739L74.0088 40.6765C74.3687 40.442 74.0528 39.9084 73.6619 40.0907L52.0306 50.1779ZM61.1698 53.6078C55.697 56.2384 55.697 62.7367 61.1698 65.3673L73.5795 71.002C73.9727 71.1805 74.2828 70.6428 73.9195 70.4123L63.3987 64.3593C59.0434 61.8431 59.0434 57.1319 63.3987 54.6157L73.9195 48.5627C74.2828 48.3323 73.9727 47.7946 73.5795 47.9731L61.1698 53.6078Z" fill="#FFB118"/>
</g>
<defs>
<filter id="filter0_d" x="1" y="0" width="91.0003" height="108.033" filterUnits="userSpaceOnUse" color-interpolation-filters="sRGB">
<feFlood flood-opacity="0" result="BackgroundImageFix"/>
<feColorMatrix in="SourceAlpha" type="matrix" values="0 0 0 0 0 0 0 0 0 0 0 0 0 0 0 0 0 0 127 0"/>
<feOffset/>
<feGaussianBlur stdDeviation="4"/>
<feColorMatrix type="matrix" values="0 0 0 0 1 0 0 0 0 0.694118 0 0 0 0 0.0941176 0 0 0 1 0"/>
<feBlend mode="normal" in2="BackgroundImageFix" result="effect1_dropShadow"/>
<feBlend mode="normal" in="SourceGraphic" in2="effect1_dropShadow" result="shape"/>
</filter>
</defs>
</svg>
