<svg width="94" height="108" viewBox="0 0 94 108" fill="none" xmlns="http://www.w3.org/2000/svg">
<g filter="url(#filter0_d)">
<path fill-rule="evenodd" clip-rule="evenodd" d="M10.1132 21.1667C12.8933 17.7761 22.7702 5.73015 36.8505 14.2374L75.0544 36.9132C84.5818 43.8456 85 49.8357 85 49.8357C85 44.6773 83.3148 38.5162 77.6534 35.0956L38.8979 10.9249C27.7167 4.16921 13.2119 9.73868 10.042 21.2535L10.1132 21.1667ZM74.356 43.1625C86.5886 50.5534 86.5886 68.296 74.356 75.6868L38.8168 97.1594C26.1539 104.81 9.99127 95.692 9.99127 80.8972L9.99127 37.952C9.99127 23.1573 26.1539 14.039 38.8168 21.6899L74.356 43.1625ZM73.3217 73.975C84.2667 67.3621 84.2667 51.4872 73.3217 44.8743L37.7825 23.4017C26.4526 16.5562 11.9913 24.7146 11.9913 37.952L11.9913 80.8972C11.9913 94.1346 26.4526 102.293 37.7825 95.4476L73.3217 73.975ZM41.9645 50.1265C50.4026 54.2866 50.4026 64.5629 41.9645 68.723L20.3307 78.7979C19.9397 78.9799 19.6237 78.4471 19.9837 78.2128L38.9778 67.129C45.693 63.1499 45.693 55.6996 38.9778 51.7205L19.9837 40.6367C19.6237 40.4024 19.9397 39.8695 20.3306 40.0516L41.9645 50.1265ZM32.8242 53.5522C38.2976 56.1796 38.2976 62.6699 32.8242 65.2973L20.4131 70.9251C20.0199 71.1034 19.7097 70.5664 20.073 70.3362L30.595 64.2906C34.9508 61.7775 34.9508 57.072 30.595 54.5589L20.073 48.5133C19.7097 48.2831 20.0199 47.7461 20.4131 47.9244L32.8242 53.5522Z" fill="#FC54FF"/>
</g>
<defs>
<filter id="filter0_d" x="1.99127" y="0" width="91.0087" height="107.927" filterUnits="userSpaceOnUse" color-interpolation-filters="sRGB">
<feFlood flood-opacity="0" result="BackgroundImageFix"/>
<feColorMatrix in="SourceAlpha" type="matrix" values="0 0 0 0 0 0 0 0 0 0 0 0 0 0 0 0 0 0 127 0"/>
<feOffset/>
<feGaussianBlur stdDeviation="4"/>
<feColorMatrix type="matrix" values="0 0 0 0 0.988235 0 0 0 0 0.329412 0 0 0 0 1 0 0 0 1 0"/>
<feBlend mode="normal" in2="BackgroundImageFix" result="effect1_dropShadow"/>
<feBlend mode="normal" in="SourceGraphic" in2="effect1_dropShadow" result="shape"/>
</filter>
</defs>
</svg>
