<svg width="100" height="102" viewBox="0 0 100 102" fill="none" xmlns="http://www.w3.org/2000/svg">
<g filter="url(#filter0_d)">
<path fill-rule="evenodd" clip-rule="evenodd" d="M49.9348 8.00172C66.7674 7.78869 74.6714 27.3887 80.9442 42.9437C82.5248 46.8634 84.0019 50.5262 85.4922 53.5504C83.6282 50.5001 81.7669 46.711 79.7827 42.6718C72.9733 28.8095 64.7168 12.0014 49.9348 12.0014C35.1526 12.0013 26.8961 28.8095 20.0867 42.6718C18.1026 46.711 16.2413 50.5001 14.3772 53.5504C15.9233 50.5077 17.4676 46.8012 19.122 42.8302C25.5468 27.4097 33.6328 8.00172 49.9348 8.00172ZM33.7224 27.0056C41.1311 14.8824 58.7385 14.8823 66.1471 27.0056L89.0521 64.4865C96.7892 77.1472 87.6774 93.394 72.8398 93.394H27.0298C12.1921 93.394 3.08036 77.1472 10.8175 64.4865L33.7224 27.0056ZM64.4406 28.0485C57.8118 17.2014 42.0578 17.2014 35.429 28.0485L12.524 65.5294C5.60135 76.8574 13.754 91.394 27.0298 91.394H72.8398C86.1156 91.394 94.2682 76.8574 87.3456 65.5294L64.4406 28.0485ZM59.5155 60.8411C55.229 52.245 44.6405 52.245 40.3541 60.8411L29.9731 82.8798C29.7855 83.2781 30.3346 83.6 30.576 83.2333L41.9965 63.8837C46.0965 57.0428 53.7731 57.0428 57.8731 63.8837L69.2936 83.2333C69.535 83.6 70.084 83.2781 69.8965 82.8798L59.5155 60.8411ZM55.9858 70.1525C53.2785 64.5766 46.5911 64.5766 43.8838 70.1525L38.0851 82.7958C37.9014 83.1964 38.4547 83.5124 38.6919 83.1423L44.9211 72.4233C47.5106 67.986 52.359 67.986 54.9485 72.4233L61.1777 83.1423C61.4149 83.5124 61.9682 83.1964 61.7845 82.7958L55.9858 70.1525Z" fill="#1DF272"/>
</g>
<defs>
<filter id="filter0_d" x="0" y="0" width="99.8696" height="101.394" filterUnits="userSpaceOnUse" color-interpolation-filters="sRGB">
<feFlood flood-opacity="0" result="BackgroundImageFix"/>
<feColorMatrix in="SourceAlpha" type="matrix" values="0 0 0 0 0 0 0 0 0 0 0 0 0 0 0 0 0 0 127 0"/>
<feOffset/>
<feGaussianBlur stdDeviation="4"/>
<feColorMatrix type="matrix" values="0 0 0 0 0.113725 0 0 0 0 0.94902 0 0 0 0 0.447059 0 0 0 1 0"/>
<feBlend mode="normal" in2="BackgroundImageFix" result="effect1_dropShadow"/>
<feBlend mode="normal" in="SourceGraphic" in2="effect1_dropShadow" result="shape"/>
</filter>
</defs>
</svg>
